<svg width="30" height="30" viewBox="0 0 30 30" fill="none" xmlns="http://www.w3.org/2000/svg">
<path d="M25.7812 13.125C24.7472 13.125 23.9062 13.9659 23.9062 15C23.9062 16.0341 24.7472 16.875 25.7812 16.875C26.8153 16.875 27.6562 16.0341 27.6562 15C27.6562 13.9659 26.8153 13.125 25.7812 13.125ZM25.7812 15.9375C25.2642 15.9375 24.8438 15.517 24.8438 15C24.8438 14.483 25.2642 14.0625 25.7812 14.0625C26.2983 14.0625 26.7188 14.483 26.7188 15C26.7188 15.517 26.2983 15.9375 25.7812 15.9375Z" fill="#4F79E6"/>
<path d="M24.375 9.84375C22.2277 9.84375 20.3386 11.1487 19.5708 13.125H18.75V11.2528C18.75 9.49031 17.6634 7.97812 16.1255 7.34719C17.1408 6.67547 17.8125 5.52469 17.8125 4.21875C17.8125 2.15109 16.1302 0.46875 14.0625 0.46875C11.9948 0.46875 10.3125 2.15109 10.3125 4.21875C10.3125 5.70281 11.1816 6.98484 12.4355 7.59187C12.1172 7.77469 11.8237 7.995 11.5645 8.25141C10.2642 7.53469 9.375 6.30375 9.375 5.15625C9.375 4.12219 8.53406 3.28125 7.5 3.28125C6.46594 3.28125 5.625 4.12219 5.625 5.15625C5.625 7.91437 7.49531 10.5605 10.3055 11.8388L10.3036 13.125H2.20172L0.46875 14.2805V15.7195L1.875 16.657V20.625H4.6875V18.75H5.625V20.625H8.4375V16.875H10.3012L8.0475 27.1186C7.75125 28.1086 8.31516 29.1558 9.30422 29.452C9.47953 29.5045 9.66094 29.5312 9.84375 29.5312C10.665 29.5312 11.4038 28.9819 11.6419 28.1888L14.1778 19.2994C14.2603 19.4639 14.3222 19.6406 14.3583 19.8263L16.0158 28.1953C16.2525 28.9819 16.9913 29.5312 17.8125 29.5312C17.9953 29.5312 18.1767 29.5045 18.3516 29.452C19.3406 29.1558 19.9045 28.1086 19.6191 27.1608L17.8781 18.4538C18.4003 18.1205 18.75 17.5392 18.75 16.875H19.5708C20.3386 18.8513 22.2277 20.1562 24.375 20.1562C27.218 20.1562 29.5312 17.843 29.5312 15C29.5312 12.157 27.218 9.84375 24.375 9.84375V9.84375ZM11.25 4.21875C11.25 2.66766 12.5114 1.40625 14.0625 1.40625C15.6136 1.40625 16.875 2.66766 16.875 4.21875C16.875 5.76984 15.6136 7.03125 14.0625 7.03125C12.5114 7.03125 11.25 5.76984 11.25 4.21875ZM6.5625 5.15625C6.5625 4.63922 6.98297 4.21875 7.5 4.21875C8.01703 4.21875 8.4375 4.63922 8.4375 5.15625C8.4375 6.61406 9.43547 8.10141 10.9664 8.99719C10.6261 9.5325 10.3997 10.147 10.3303 10.8084C8.08359 9.63234 6.5625 7.39312 6.5625 5.15625V5.15625ZM11.2439 11.2477C11.2467 9.43969 12.72 7.96875 14.528 7.96875C16.3387 7.96875 17.8125 9.44203 17.8125 11.2528V16.875C17.8125 17.392 17.392 17.8125 16.875 17.8125C16.358 17.8125 15.9375 17.392 15.9375 16.875V11.7848C15.9375 10.9992 15.5475 10.2703 14.8936 9.83484L14.3222 9.45422L13.8023 10.2342L14.3737 10.6148C14.7661 10.8759 15 11.3133 15 11.7848V13.125H11.2411L11.2439 11.2477ZM1.40625 14.782L2.48578 14.0625H15V15.9375H2.48578L1.40625 15.218V14.782ZM7.5 19.6875H6.5625V17.8125H3.75V19.6875H2.8125V16.875H7.5V19.6875ZM18.7106 27.3872C18.8583 27.8822 18.577 28.4058 18.082 28.5539C17.5978 28.6992 17.0564 28.3964 16.9252 27.9689L15.2784 19.6439C15.0684 18.5817 14.3002 17.7098 13.2731 17.3672L12.9764 18.2564C13.1405 18.3112 13.2942 18.3872 13.4367 18.4786L10.7419 27.9248C10.5975 28.4058 10.0598 28.6992 9.57375 28.5534C9.07922 28.4053 8.79797 27.8817 8.95453 27.353L11.2392 16.9748L11.2411 16.875H15C15 17.9091 15.8409 18.75 16.875 18.75C16.9106 18.75 16.9439 18.7416 16.9791 18.7392L18.7106 27.3872ZM24.375 19.2188C22.5225 19.2188 20.9048 18.0319 20.3498 16.2656L20.2467 15.9375H18.75V14.0625H20.2467L20.3498 13.7344C20.9048 11.9681 22.5225 10.7812 24.375 10.7812C26.7014 10.7812 28.5938 12.6741 28.5938 15C28.5938 17.3259 26.7014 19.2188 24.375 19.2188Z" fill="#4F79E6"/>
</svg>
