<svg width="30" height="30" viewBox="0 0 30 30" fill="none" xmlns="http://www.w3.org/2000/svg">
<g clip-path="url(#clip0)">
<path d="M12.1875 21.3591V17.6445C12.1875 17.2751 12.0393 16.9208 11.7756 16.6595C11.5119 16.3983 11.1542 16.2515 10.7812 16.2515C10.4083 16.2515 10.0506 16.3983 9.78686 16.6595C9.52313 16.9208 9.37498 17.2751 9.37498 17.6445V21.3591C9.02211 21.6235 8.75201 21.9814 8.59589 22.3915C8.43977 22.8016 8.40402 23.2471 8.49277 23.6764C8.58151 24.1058 8.79114 24.5015 9.0974 24.8178C9.40366 25.1341 9.79404 25.358 10.2234 25.4638C10.406 25.5091 10.5931 25.5341 10.7812 25.5381C11.2731 25.5381 11.7526 25.3848 12.1516 25.0999C12.5507 24.8149 12.8491 24.4129 13.0047 23.9506C13.1603 23.4883 13.165 22.9893 13.0184 22.5242C12.8717 22.0591 12.581 21.6515 12.1875 21.3591V21.3591ZM11.6531 24.2983C11.5028 24.4249 11.3273 24.5187 11.138 24.5737C10.9487 24.6287 10.7499 24.6436 10.5544 24.6175C10.3589 24.5914 10.1711 24.5249 10.0033 24.4222C9.83548 24.3195 9.69133 24.183 9.58024 24.0215C9.46915 23.8601 9.39359 23.6772 9.35848 23.485C9.32337 23.2927 9.32949 23.0952 9.37644 22.9054C9.42339 22.7157 9.51013 22.5378 9.63102 22.3834C9.7519 22.229 9.90423 22.1015 10.0781 22.0092C10.1496 21.9683 10.209 21.9094 10.2501 21.8384C10.2913 21.7675 10.3128 21.687 10.3125 21.6052V17.6445C10.3125 17.5214 10.3619 17.4033 10.4498 17.3162C10.5377 17.2291 10.6569 17.1802 10.7812 17.1802C10.9055 17.1802 11.0248 17.2291 11.1127 17.3162C11.2006 17.4033 11.25 17.5214 11.25 17.6445V21.6145C11.2496 21.6963 11.2711 21.7768 11.3123 21.8477C11.3535 21.9187 11.4128 21.9776 11.4843 22.0185C11.6811 22.1326 11.8469 22.2924 11.9675 22.4842C12.088 22.6759 12.1597 22.8938 12.1763 23.1191C12.1929 23.3444 12.1539 23.5703 12.0628 23.7773C11.9717 23.9844 11.8311 24.1664 11.6531 24.3076V24.2983Z" fill="#4F79E6"/>
<path d="M28.6969 17.6445L27.1453 17.3055C26.3696 17.1293 25.6377 16.8001 24.9934 16.3373C24.3491 15.8746 23.8056 15.2879 23.3953 14.6124C23.3538 14.5431 23.2948 14.4857 23.2241 14.4459C23.1535 14.406 23.0735 14.385 22.9922 14.385C22.9109 14.385 22.8309 14.406 22.7602 14.4459C22.6896 14.4857 22.6306 14.5431 22.5891 14.6124C22.0077 15.5641 21.1635 16.331 20.1562 16.8226V14.8585C20.156 14.407 20.0229 13.9653 19.7731 13.5876C19.5233 13.2099 19.1678 12.9125 18.75 12.7319V8.35793C18.75 6.26442 17.9104 4.25666 16.416 2.77633C14.9216 1.296 12.8947 0.464355 10.7812 0.464355C8.66781 0.464355 6.64092 1.296 5.14649 2.77633C3.65206 4.25666 2.8125 6.26442 2.8125 8.35793V12.7319C2.39472 12.9125 2.03918 13.2099 1.78941 13.5876C1.53964 13.9653 1.40648 14.407 1.40625 14.8585V16.2515H0.9375C0.81318 16.2515 0.693951 16.3004 0.606044 16.3875C0.518136 16.4746 0.46875 16.5927 0.46875 16.7158V25.0737C0.46875 25.1969 0.518136 25.315 0.606044 25.4021C0.693951 25.4891 0.81318 25.5381 0.9375 25.5381H1.40625V26.931C1.40625 27.5468 1.65318 28.1373 2.09272 28.5727C2.53226 29.0081 3.1284 29.2527 3.75 29.2527H17.8125C18.4341 29.2527 19.0302 29.0081 19.4698 28.5727C19.9093 28.1373 20.1562 27.5468 20.1562 26.931V26.8707C20.7992 27.6164 21.5222 28.2906 22.3125 28.8812L22.6875 29.1598C22.7686 29.2201 22.8673 29.2527 22.9688 29.2527C23.0702 29.2527 23.1689 29.2201 23.25 29.1598L23.625 28.8812C25.3093 27.6232 26.6766 25.996 27.62 24.1271C28.5633 22.2582 29.0571 20.1983 29.0625 18.1088C29.0651 18.0015 29.0302 17.8966 28.9635 17.8119C28.8968 17.7272 28.8026 17.6681 28.6969 17.6445ZM3.75 8.35793C3.75 6.51072 4.49079 4.73916 5.80941 3.43299C7.12802 2.12681 8.91645 1.39301 10.7812 1.39301C12.6461 1.39301 14.4345 2.12681 15.7531 3.43299C17.0717 4.73916 17.8125 6.51072 17.8125 8.35793V12.5369H15.9375V8.35793C15.9375 7.00331 15.3943 5.70417 14.4273 4.74631C13.4603 3.78844 12.1488 3.25032 10.7812 3.25032C9.41373 3.25032 8.10222 3.78844 7.13523 4.74631C6.16825 5.70417 5.625 7.00331 5.625 8.35793V12.5369H3.75V8.35793ZM15 12.5369H6.5625V8.35793C6.5625 7.2496 7.00697 6.18667 7.79814 5.40296C8.58931 4.61926 9.66237 4.17898 10.7812 4.17898C11.9001 4.17898 12.9732 4.61926 13.7644 5.40296C14.5555 6.18667 15 7.2496 15 8.35793V12.5369ZM6.09375 17.1802V19.0375H1.40625V17.1802H6.09375ZM1.40625 24.6094V22.7521H6.09375V24.6094H1.40625ZM6.09375 21.8234H1.40625V19.9661H6.09375V21.8234ZM19.2188 26.931C19.2188 27.3005 19.0706 27.6548 18.8069 27.916C18.5431 28.1773 18.1855 28.324 17.8125 28.324H3.75C3.37704 28.324 3.01935 28.1773 2.75563 27.916C2.49191 27.6548 2.34375 27.3005 2.34375 26.931V25.5381H6.5625C6.68682 25.5381 6.80605 25.4891 6.89396 25.4021C6.98186 25.315 7.03125 25.1969 7.03125 25.0737V16.7158C7.03125 16.5927 6.98186 16.4746 6.89396 16.3875C6.80605 16.3004 6.68682 16.2515 6.5625 16.2515H2.34375V14.8585C2.34375 14.4891 2.49191 14.1348 2.75563 13.8735C3.01935 13.6123 3.37704 13.4655 3.75 13.4655H17.8125C18.1855 13.4655 18.5431 13.6123 18.8069 13.8735C19.0706 14.1348 19.2188 14.4891 19.2188 14.8585V17.1802C19.0781 17.2219 18.9375 17.2637 18.7922 17.2962L17.2406 17.6445C17.1349 17.6681 17.0407 17.7272 16.974 17.8119C16.9073 17.8966 16.8724 18.0015 16.875 18.1088C16.8826 20.7972 17.6986 23.4224 19.2188 25.6495V26.931ZM23.0625 28.1383L22.9688 28.2079L22.875 28.1383C21.3565 27.0052 20.1136 25.5496 19.2375 23.8783C18.3615 22.2069 17.8745 20.3625 17.8125 18.4803L18.9891 18.2203C20.5766 17.8708 21.9871 16.9739 22.9688 15.6897C23.9493 16.973 25.358 17.8698 26.9437 18.2203L28.125 18.4803C28.063 20.3625 27.576 22.2069 26.7 23.8783C25.8239 25.5496 24.581 27.0052 23.0625 28.1383V28.1383Z" fill="#4F79E6"/>
<path d="M25.7297 18.782L24.8953 18.3641L24.5766 18.991C23.853 18.5673 22.9943 18.431 22.1734 18.6094C21.3524 18.7878 20.6301 19.2676 20.1521 19.9524C19.674 20.6371 19.4756 21.4759 19.5968 22.2998C19.718 23.1236 20.1498 23.8714 20.8053 24.3925C21.4608 24.9136 22.2913 25.1693 23.1295 25.1082C23.9677 25.0471 24.7514 24.6736 25.3228 24.063C25.8942 23.4524 26.2108 22.6501 26.2089 21.8175C26.207 20.985 25.8867 20.184 25.3125 19.576L25.7297 18.782ZM25.3125 21.8234C25.3178 22.3418 25.1496 22.8474 24.834 23.261C24.5184 23.6747 24.0733 23.973 23.5684 24.1094C23.0634 24.2459 22.5271 24.2127 22.0432 24.0151C21.5593 23.8175 21.1552 23.4666 20.894 23.0172C20.6328 22.5679 20.5294 22.0455 20.5998 21.5318C20.6702 21.018 20.9105 20.5419 21.2832 20.1778C21.6558 19.8137 22.1397 19.5822 22.6593 19.5196C23.1789 19.4569 23.7048 19.5666 24.1547 19.8314L22.8891 22.3388L21.9516 21.0805L21.2016 21.6377L22.6078 23.495C22.6515 23.5526 22.7081 23.5994 22.7732 23.6317C22.8383 23.6639 22.9101 23.6807 22.9828 23.6807H23.025C23.1043 23.6732 23.1803 23.6458 23.2459 23.6011C23.3115 23.5564 23.3646 23.4959 23.4 23.4253L24.886 20.4815C25.1671 20.8732 25.3164 21.3428 25.3125 21.8234V21.8234Z" fill="#4F79E6"/>
</g>
<defs>
<clipPath id="clip0">
<rect width="30" height="29.717" fill="white"/>
</clipPath>
</defs>
</svg>
