<svg width="22" height="22" viewBox="0 0 22 22" fill="none" xmlns="http://www.w3.org/2000/svg">
<g clip-path="url(#clip0)">
<path d="M17.3606 8.72308C17.6749 6.78402 16.3578 4.95728 14.4188 4.64294C12.4797 4.32861 10.653 5.64571 10.3386 7.58477C10.0243 9.52383 11.3414 11.3506 13.2805 11.6649C15.2195 11.9792 17.0463 10.6621 17.3606 8.72308Z" fill="#FFE07D"/>
<path d="M13.8528 4.59696C13.6852 4.59696 13.5205 4.60942 13.359 4.63188C15.0897 4.87241 16.4223 6.35726 16.4223 8.15423C16.4223 9.9512 15.0897 11.4361 13.359 11.6766C13.5205 11.699 13.6852 11.7115 13.8528 11.7115C15.8175 11.7115 17.4101 10.1189 17.4101 8.15427C17.4101 6.18969 15.8175 4.59696 13.8528 4.59696V4.59696Z" fill="#FFD064"/>
<path d="M18.8181 15.9802H18.8172C18.7647 15.9802 18.7196 15.9449 18.7049 15.8946C18.3603 14.7108 17.2673 13.8458 15.9723 13.8458C15.4881 13.8458 15.0324 13.9671 14.6334 14.1806C14.477 14.2642 14.2828 14.2205 14.1834 14.0736C13.7997 13.5069 13.151 13.1344 12.4151 13.1344C12.243 13.1344 12.0757 13.1548 11.9154 13.1934C11.7418 13.2351 11.5625 13.1418 11.5064 12.9723C10.991 11.4134 9.52231 10.2886 7.79066 10.2886C5.6296 10.2886 3.87767 12.0405 3.87767 14.2016C3.87767 14.2507 3.87892 14.2994 3.88098 14.348C3.883 14.396 3.86724 14.4432 3.83765 14.4811L3.8346 14.485C3.79754 14.5325 3.74141 14.5605 3.68125 14.5638C1.78782 14.667 0.288236 16.2497 0.32096 18.1764C0.35407 20.1241 1.97437 21.6718 3.92234 21.6718H18.7757C20.3397 21.6718 21.6433 20.4277 21.6637 18.8638C21.6843 17.2747 20.4024 15.9802 18.8181 15.9802Z" fill="#ECF4FF"/>
<path d="M18.8181 15.9802H18.8172C18.7647 15.9802 18.7196 15.9449 18.7049 15.8946C18.3603 14.7108 17.2673 13.8458 15.9723 13.8458C15.4881 13.8458 15.0324 13.9671 14.6334 14.1806C14.477 14.2642 14.2828 14.2205 14.1834 14.0736C13.7997 13.5069 13.151 13.1344 12.4151 13.1344C12.243 13.1344 12.0757 13.1548 11.9154 13.1934C11.7418 13.2351 11.5625 13.1418 11.5064 12.9723C10.991 11.4134 9.52231 10.2886 7.79066 10.2886C5.6296 10.2886 3.87767 12.0405 3.87767 14.2016C3.87767 14.2507 3.87892 14.2994 3.88098 14.348C3.883 14.396 3.86724 14.4432 3.83765 14.4811L3.8346 14.485C3.79754 14.5325 3.74141 14.5605 3.68125 14.5638C1.78782 14.667 0.288236 16.2497 0.32096 18.1764C0.35407 20.1241 1.97437 21.6718 3.92234 21.6718H18.7757C20.3397 21.6718 21.6433 20.4277 21.6637 18.8638C21.6843 17.2747 20.4024 15.9802 18.8181 15.9802Z" fill="#ECF4FF"/>
<path d="M18.8181 15.9802H18.8172C18.7647 15.9802 18.7196 15.9449 18.7049 15.8946C18.3603 14.7108 17.2673 13.8458 15.9723 13.8458C15.804 13.8458 15.6391 13.8608 15.4788 13.8889C16.5514 14.0768 17.4174 14.865 17.7172 15.8946C17.7319 15.9449 17.777 15.9802 17.8294 15.9802H17.8304C19.4147 15.9802 20.6966 17.2747 20.676 18.8637C20.6557 20.4276 19.352 21.6717 17.788 21.6717H18.7757C20.3397 21.6717 21.6434 20.4276 21.6637 18.8637C21.6843 17.2747 20.4024 15.9802 18.8181 15.9802V15.9802Z" fill="#DDEAFB"/>
<path d="M4.56913 21.3497H3.8788C2.09522 21.3497 0.644169 19.8984 0.644169 18.1145C0.644169 16.3316 2.09363 14.881 3.87588 14.8794C3.88189 14.8796 3.88782 14.8798 3.89383 14.8798H3.89409C5.67066 14.888 7.11343 16.3357 7.11343 18.1145C7.11343 18.2924 7.25759 18.4366 7.43551 18.4366C7.61343 18.4366 7.7576 18.2924 7.7576 18.1145C7.7576 16.0843 6.19012 14.4136 4.202 14.2488C4.20178 14.2331 4.20093 14.2171 4.20093 14.2015C4.20093 13.5941 4.35523 12.994 4.64721 12.4662C4.73327 12.3105 4.67688 12.1145 4.52121 12.0284C4.36553 11.9424 4.16958 11.9988 4.08347 12.1544C3.73893 12.7774 3.55676 13.4853 3.55676 14.2015C3.55676 14.2171 3.55684 14.2327 3.55701 14.2484C1.56821 14.4125 0 16.0838 0 18.1145C0 20.2536 1.74003 21.9938 3.8788 21.9938H4.56913C4.74705 21.9938 4.89122 21.8496 4.89122 21.6717C4.89122 21.4939 4.74705 21.3497 4.56913 21.3497V21.3497Z" fill="black"/>
<path d="M18.9678 15.6616C18.5326 14.391 17.3344 13.5237 15.9715 13.5237C15.4382 13.5237 14.9219 13.6557 14.4594 13.908C14.0081 13.2328 13.2393 12.8123 12.4148 12.8123C12.2114 12.8123 12.0113 12.8369 11.8167 12.8858C11.5618 12.108 11.0801 11.4102 10.4363 10.8944C9.68941 10.296 8.75 9.96645 7.79109 9.96645C6.74161 9.96645 5.73478 10.3533 4.95602 11.0557C4.82392 11.1748 4.81344 11.3785 4.93257 11.5106C5.05178 11.6428 5.25543 11.6531 5.38748 11.5341C6.04767 10.9386 6.90128 10.6106 7.79109 10.6106C9.37708 10.6106 10.7504 11.632 11.2162 13.1237C10.4538 13.5497 9.95872 14.3625 9.95872 15.2687C9.95872 15.4466 10.1029 15.5908 10.2808 15.5908C10.4587 15.5908 10.6029 15.4466 10.6029 15.2687C10.6029 14.5282 11.0508 13.8724 11.7183 13.5952C11.7194 13.5948 11.7172 13.5957 11.7183 13.5952C11.9385 13.5039 12.175 13.4564 12.4148 13.4564C13.112 13.4564 13.7552 13.8641 14.0536 14.495C14.0941 14.5808 14.1704 14.6443 14.262 14.6686C14.3537 14.6929 14.4514 14.6757 14.5292 14.6214C14.954 14.3247 15.4527 14.1679 15.9715 14.1679C17.1246 14.1679 18.1297 14.9469 18.4158 16.0624C18.4532 16.2085 18.5853 16.3086 18.7378 16.3043C18.7378 16.3043 18.7976 16.3022 18.8169 16.3022C20.2082 16.3022 21.3402 17.4343 21.3402 18.8259C21.3402 20.2175 20.2082 21.3496 18.8169 21.3496C17.4255 21.3496 16.2936 20.2175 16.2936 18.8259C16.2936 18.648 16.1494 18.5038 15.9715 18.5038C15.7936 18.5038 15.6494 18.648 15.6494 18.8259C15.6494 19.855 16.1428 20.7706 16.9051 21.3496H5.85747C5.67955 21.3496 5.53538 21.4939 5.53538 21.6717C5.53538 21.8496 5.67955 21.9938 5.85747 21.9938H18.8168C20.5634 21.9938 21.9843 20.5727 21.9843 18.8259C21.9843 17.1298 20.6445 15.7407 18.9678 15.6616V15.6616Z" fill="black"/>
<path d="M13.8629 4.27488C13.8614 4.27488 13.8599 4.27497 13.8584 4.27497C13.8563 4.27497 13.8541 4.27488 13.852 4.27488C11.7133 4.27488 9.97328 6.01512 9.97328 8.15424C9.97328 10.2933 11.7133 12.0335 13.852 12.0335C13.8541 12.0335 13.8562 12.0335 13.8583 12.0335C13.8599 12.0335 13.8614 12.0335 13.8629 12.0335C16.002 12.0335 17.7422 10.2933 17.7422 8.15419C17.7422 6.01512 16.0019 4.27488 13.8629 4.27488V4.27488ZM12.05 5.46891C12.0646 5.46225 12.079 5.45478 12.0928 5.44572C12.549 5.14691 13.0699 4.9705 13.6123 4.92884C13.6203 4.92824 13.6283 4.92755 13.6363 4.92699C13.6654 4.92497 13.6947 4.92347 13.7239 4.92227C13.7577 4.92094 13.7915 4.91995 13.8255 4.91969C13.8358 4.91956 13.8461 4.91913 13.8565 4.91913C15.638 4.92158 17.0865 6.37182 17.0865 8.15419C17.0865 9.93609 15.6387 11.386 13.8578 11.3892C12.0762 11.3865 10.6277 9.93635 10.6277 8.15419C10.6277 7.46609 10.8407 6.8093 11.2437 6.25467C11.2559 6.23796 11.266 6.2204 11.2745 6.20236C11.4907 5.91742 11.7528 5.66908 12.05 5.46891V5.46891Z" fill="black"/>
<path d="M13.852 3.49617C14.0299 3.49617 14.1741 3.35196 14.1741 3.17408V0.328272C14.1741 0.150395 14.0299 0.00618744 13.852 0.00618744C13.6741 0.00618744 13.5299 0.150395 13.5299 0.328272V3.17408C13.5299 3.35196 13.6741 3.49617 13.852 3.49617Z" fill="black"/>
<path d="M18.5101 8.15419C18.5101 8.33207 18.6542 8.47628 18.8321 8.47628H21.678C21.8559 8.47628 22.0001 8.33207 22.0001 8.15419C22.0001 7.97632 21.8559 7.83211 21.678 7.83211H18.8321C18.6542 7.83211 18.5101 7.97632 18.5101 8.15419Z" fill="black"/>
<path d="M6.02602 8.47628H8.87183C9.04975 8.47628 9.19391 8.33207 9.19391 8.15419C9.19391 7.97632 9.04975 7.83211 8.87183 7.83211H6.02602C5.8481 7.83211 5.70393 7.97632 5.70393 8.15419C5.70393 8.33211 5.84814 8.47628 6.02602 8.47628Z" fill="black"/>
<path d="M17.3735 4.95478C17.4559 4.95478 17.5384 4.92334 17.6013 4.86043L19.6135 2.84817C19.7393 2.72239 19.7393 2.51844 19.6135 2.3927C19.4877 2.26692 19.2838 2.26692 19.158 2.3927L17.1458 4.40496C17.02 4.53074 17.02 4.73468 17.1458 4.86043C17.2086 4.92334 17.2911 4.95478 17.3735 4.95478V4.95478Z" fill="black"/>
<path d="M19.158 13.9157C19.2209 13.9786 19.3033 14.0101 19.3858 14.0101C19.4682 14.0101 19.5506 13.9786 19.6135 13.9157C19.7393 13.7899 19.7393 13.586 19.6135 13.4603L17.6013 11.448C17.4755 11.3222 17.2716 11.3222 17.1458 11.448C17.02 11.5737 17.02 11.7777 17.1458 11.9034L19.158 13.9157Z" fill="black"/>
<path d="M10.1027 4.86047C10.1656 4.92334 10.2481 4.95482 10.3305 4.95482C10.4129 4.95482 10.4954 4.92338 10.5583 4.86047C10.6841 4.73468 10.6841 4.53074 10.5583 4.405L8.54597 2.3927C8.42015 2.26692 8.21625 2.26692 8.09046 2.3927C7.96468 2.51849 7.96468 2.72243 8.09046 2.84817L10.1027 4.86047Z" fill="black"/>
<path d="M11.6486 3.67641C11.6999 3.80043 11.8198 3.87533 11.9463 3.87533C11.9873 3.87533 12.0291 3.86743 12.0694 3.85072C12.2337 3.78265 12.3118 3.59421 12.2437 3.42991L11.6992 2.11533C11.6311 1.95098 11.4427 1.87286 11.2784 1.94102C11.114 2.00909 11.0359 2.19753 11.104 2.36183L11.6486 3.67641Z" fill="black"/>
<path d="M7.81308 6.00147L9.12766 6.54601C9.16794 6.56271 9.20968 6.57062 9.25078 6.57062C9.37717 6.57062 9.49707 6.49572 9.54847 6.3717C9.61659 6.20735 9.53855 6.01895 9.37416 5.95088L8.05958 5.40634C7.89536 5.33828 7.70688 5.41631 7.63877 5.58066C7.57066 5.74496 7.64873 5.93336 7.81308 6.00147V6.00147Z" fill="black"/>
<path d="M20.0651 10.7278C20.1333 10.5635 20.0552 10.3751 19.8908 10.307L18.5763 9.76247C18.412 9.69449 18.2235 9.77243 18.1554 9.93678C18.0873 10.1011 18.1654 10.2895 18.3297 10.3576L19.6443 10.9021C19.6847 10.9188 19.7264 10.9267 19.7675 10.9267C19.8939 10.9267 20.0138 10.8518 20.0651 10.7278V10.7278Z" fill="black"/>
<path d="M18.3297 5.95083C18.1654 6.0189 18.0873 6.20734 18.1554 6.37165C18.2068 6.49567 18.3267 6.57057 18.4531 6.57057C18.4942 6.57057 18.5359 6.56266 18.5762 6.54596L19.8908 6.00142C20.0552 5.93335 20.1332 5.74491 20.0651 5.58061C19.9971 5.4163 19.8087 5.33819 19.6443 5.4063L18.3297 5.95083Z" fill="black"/>
<path d="M15.6345 3.85071C15.6748 3.86742 15.7165 3.87532 15.7576 3.87532C15.884 3.87532 16.0039 3.80043 16.0553 3.6764L16.5998 2.36182C16.668 2.19747 16.5899 2.00908 16.4255 1.94101C16.2613 1.87299 16.0728 1.95097 16.0047 2.11532L15.4602 3.4299C15.3921 3.59425 15.4701 3.78265 15.6345 3.85071V3.85071Z" fill="black"/>
</g>
<defs>
<clipPath id="clip0">
<rect width="22" height="22" fill="white"/>
</clipPath>
</defs>
</svg>
